<?xml version="1.0" standalone="no"?>
<!DOCTYPE svg PUBLIC "-//W3C//DTD SVG 20010904//EN"
 "http://www.w3.org/TR/2001/REC-SVG-20010904/DTD/svg10.dtd">
<svg version="1.0" xmlns="http://www.w3.org/2000/svg"
 width="109.000000pt" height="109.000000pt" viewBox="0 0 109.000000 109.000000"
 preserveAspectRatio="xMidYMid meet">
<metadata>
Created by potrace 1.11, written by Peter Selinger 2001-2013
</metadata>
<g transform="translate(0.000000,109.000000) scale(0.100000,-0.100000)"
fill="#000000" stroke="none">
<path d="M470 615 l0 -265 70 0 70 0 0 265 0 265 -70 0 -70 0 0 -265z m120 0
l0 -245 -50 0 -50 0 0 245 0 245 50 0 50 0 0 -245z"/>
<path d="M229 641 c0 -9 -2 -78 -2 -153 l-2 -138 71 0 71 0 -1 152 -1 153 -67
1 c-57 1 -68 -1 -69 -15z m114 -15 c2 -6 3 -65 3 -131 l-1 -120 -49 0 -49 0 0
95 c2 184 -3 166 47 167 25 1 46 -4 49 -11z"/>
<path d="M719 553 c-1 -5 -2 -52 -3 -105 l-1 -98 67 0 c47 0 68 4 69 13 0 6 1
54 2 105 l2 92 -67 0 c-38 0 -69 -3 -69 -7z m112 -20 c1 -11 1 -135 0 -150 -1
-9 -18 -13 -49 -13 l-48 0 2 78 c1 42 2 80 3 85 0 4 21 7 46 7 25 0 45 -3 46
-7z"/>
<path d="M190 249 c0 -11 -31 -10 365 -11 219 0 330 3 333 10 2 7 -110 10
-347 10 -199 0 -351 -4 -351 -9z"/>
</g>
</svg>
